<svg version="1.2" xmlns="http://www.w3.org/2000/svg" viewBox="0 0 28 28" width="28" height="28"><style>.a{fill:#ffd700}</style><path class="a" d="m6.1 22.3h-2.6v-14h2.3v-2.4h7.2v2.4h2.4v7.1h-2.4v2.3h-6.9zm0-13.8v6.6h6.7v-6.6zm15 13.8h-2.6v-2.5h2.3v-2.4h2.3v-2h-2.3v-2.3h-2.3v-2.6h2.6v2.4h2.3v2.2h2v-2.2h2.3v-2.4h2.6v2.6h-2.3v2.3h-2.3v2h2.3v2.4h2.3v2.5h-2.6v-2.3h-2.3v-2.3h-2v2.3h-2.3z"/><path  d="m4.1 21.3h-2.6v-14h2.3v-2.4h7.2v2.4h2.4v7.1h-2.4v2.3h-6.9zm0-13.8v6.6h6.7v-6.6zm15 13.8h-2.6v-2.5h2.3v-2.4h2.3v-2h-2.3v-2.3h-2.3v-2.6h2.6v2.4h2.3v2.2h2v-2.2h2.3v-2.4h2.6v2.6h-2.3v2.3h-2.3v2h2.3v2.4h2.3v2.5h-2.6v-2.3h-2.3v-2.3h-2v2.3h-2.3z"/></svg>
