<svg version="1.2" xmlns="http://www.w3.org/2000/svg" viewBox="0 0 113 28" width="113" height="28"><path fill="#ffd700" d="m6.1 22.3h-2.6v-14h2.3v-2.4h7.2v2.4h2.4v7.1h-2.4v2.3h-6.9zm0-13.8v6.6h6.7v-6.6zm15 13.8h-2.6v-11.8h2.6zm0-13.8h-2.6v-2.5h2.6zm6 13.8h-2.6v-2.6h2.3v-2.3h2.3v-2.1h-2.3v-2.3h-2.3v-2.5h2.6v2.3h2.3v2.3h2v-2.3h2.3v-2.3h2.6v2.5h-2.3v2.3h-2.3v2.1h2.3v2.3h2.3v2.6h-2.6v-2.3h-2.3v-2.3h-2v2.3h-2.3zm14 0h-2.6v-11.8h2.3v-2.3h2.3v-2.3h2.6v2.3h2.3v2.3h2.3v11.8h-2.6v-4.6h-6.6zm0-11.5v4.3h6.6v-4.3h-2.3v-2.3h-2v2.3zm21.9 16.1h-7.2v-2.3h-2.3v-2.6h2.6v2.3h6.7v-4.3h-7v-2.3h-2.3v-4.9h2.3v-2.3h7.2v2.3h2.3v11.8h-2.3zm-6.9-13.8v4.3h6.7v-4.3zm21.9 9.2h-7.2v-2.3h-2.3v-7.2h2.3v-2.3h7.2v2.3h2.3v7.2h-2.3zm-6.9-9.2v6.6h6.6v-6.6zm14 9.2h-2.5v-9.5h2.3v-2.3h7.2v2.3h2.3v2.6h-2.6v-2.3h-6.7zm22 0h-7.2v-2.3h-2.3v-7.2h2.3v-2.3h7.2v2.3h2.3v6.9h2.3v2.6h-2.6v-2.3h-2zm-7-9.2v6.6h6.7v-6.6z"/><path fill="#796700" d="m4.1 21.3h-2.6v-14h2.3v-2.4h7.2v2.4h2.4v7.1h-2.4v2.3h-6.9zm0-13.8v6.6h6.7v-6.6zm15 13.8h-2.6v-11.8h2.6zm0-13.8h-2.6v-2.5h2.6zm6 13.8h-2.6v-2.6h2.3v-2.3h2.3v-2.1h-2.3v-2.3h-2.3v-2.5h2.6v2.3h2.3v2.3h2v-2.3h2.3v-2.3h2.6v2.5h-2.3v2.3h-2.3v2.1h2.3v2.3h2.3v2.6h-2.6v-2.3h-2.3v-2.3h-2v2.3h-2.3zm15 0h-2.6v-11.8h2.3v-2.3h2.3v-2.3h2.6v2.3h2.3v2.3h2.3v11.8h-2.6v-4.6h-6.6zm0-11.5v4.3h6.6v-4.3h-2.3v-2.3h-2v2.3zm21.9 16.1h-7.2v-2.3h-2.3v-2.6h2.6v2.3h6.7v-4.3h-7v-2.3h-2.3v-4.9h2.3v-2.3h7.2v2.3h2.3v11.8h-2.3zm-6.9-13.8v4.3h6.7v-4.3zm20.9 9.2h-7.2v-2.3h-2.3v-7.2h2.3v-2.3h7.2v2.3h2.3v7.2h-2.3zm-6.9-9.2v6.6h6.6v-6.6zm15 9.2h-2.5v-9.5h2.3v-2.3h7.2v2.3h2.3v2.6h-2.6v-2.3h-6.7zm21 0h-7.2v-2.3h-2.3v-7.2h2.3v-2.3h7.2v2.3h2.3v6.9h2.3v2.6h-2.6v-2.3h-2zm-7-9.2v6.6h6.7v-6.6z"/></svg>
